<mxfile host="app.diagrams.net" modified="2023-06-06T10:16:46.440Z" agent="Mozilla/5.0 (Macintosh; Intel Mac OS X 10_14_6) AppleWebKit/605.1.15 (KHTML, like Gecko) Version/14.1.2 Safari/605.1.15" etag="phTmpUz9l8P_fsX9C9bv" version="21.3.7" type="device" pages="5">
  <diagram name="Page-1" id="xd-_JE6EhLBX400Oj6kL">
    <mxGraphModel dx="1645" dy="1653" grid="1" gridSize="10" guides="1" tooltips="1" connect="1" arrows="1" fold="1" page="1" pageScale="1" pageWidth="850" pageHeight="1100" math="0" shadow="0">
      <root>
        <mxCell id="0" />
        <mxCell id="1" parent="0" />
        <mxCell id="bn_BLgUIFz1hkSgKW1F4-17" value="" style="group" parent="1" vertex="1" connectable="0">
          <mxGeometry x="380" y="-80" width="760" height="180" as="geometry" />
        </mxCell>
        <mxCell id="bn_BLgUIFz1hkSgKW1F4-18" value="" style="rounded=0;whiteSpace=wrap;html=1;strokeColor=#6c8ebf;fillColor=#dae8fc;glass=0;shadow=0;sketch=0;dashed=1;strokeWidth=2;" parent="bn_BLgUIFz1hkSgKW1F4-17" vertex="1">
          <mxGeometry width="760.0000000000001" height="180" as="geometry" />
        </mxCell>
        <mxCell id="bn_BLgUIFz1hkSgKW1F4-19" value="&lt;font style=&quot;font-size: 18px;&quot;&gt;JsonRpcResponseHandler&lt;font style=&quot;font-size: 18px;&quot;&gt;&lt;br&gt;&lt;/font&gt;&lt;/font&gt;" style="text;html=1;strokeColor=none;fillColor=none;align=center;verticalAlign=middle;whiteSpace=wrap;rounded=0;shadow=0;glass=0;dashed=1;sketch=0;" parent="bn_BLgUIFz1hkSgKW1F4-17" vertex="1">
          <mxGeometry y="0.6206896551724138" width="208.00000000000003" height="30.413793103448278" as="geometry" />
        </mxCell>
        <mxCell id="AvhkuW_tIZUupY4tq_w7-31" value="&lt;div style=&quot;font-size: 13px;&quot;&gt;&lt;font style=&quot;font-size: 14px;&quot;&gt;GetMessagesByIdResponseHandler&lt;/font&gt;&lt;/div&gt;" style="rounded=0;whiteSpace=wrap;html=1;" parent="bn_BLgUIFz1hkSgKW1F4-17" vertex="1">
          <mxGeometry x="260" y="57.07" width="255.6" height="65.86" as="geometry" />
        </mxCell>
        <mxCell id="bn_BLgUIFz1hkSgKW1F4-28" value="" style="group;fillColor=#ffe6cc;strokeColor=#d79b00;" parent="1" vertex="1" connectable="0">
          <mxGeometry x="380" y="460" width="760" height="430" as="geometry" />
        </mxCell>
        <mxCell id="bn_BLgUIFz1hkSgKW1F4-29" value="" style="rounded=0;whiteSpace=wrap;html=1;strokeColor=#d79b00;fillColor=#ffe6cc;glass=0;shadow=0;sketch=0;dashed=1;strokeWidth=2;" parent="bn_BLgUIFz1hkSgKW1F4-28" vertex="1">
          <mxGeometry width="760" height="430.00000000000006" as="geometry" />
        </mxCell>
        <mxCell id="bn_BLgUIFz1hkSgKW1F4-30" value="&lt;div&gt;&lt;font style=&quot;font-size: 18px;&quot;&gt;ParamsHandler&lt;br&gt;&lt;/font&gt;&lt;/div&gt;" style="text;html=1;strokeColor=none;fillColor=none;align=center;verticalAlign=middle;whiteSpace=wrap;rounded=0;shadow=0;glass=0;dashed=1;sketch=0;" parent="bn_BLgUIFz1hkSgKW1F4-28" vertex="1">
          <mxGeometry y="1.1" width="150" height="54.03" as="geometry" />
        </mxCell>
        <mxCell id="AvhkuW_tIZUupY4tq_w7-18" style="edgeStyle=orthogonalEdgeStyle;rounded=0;orthogonalLoop=1;jettySize=auto;html=1;exitX=1;exitY=0.5;exitDx=0;exitDy=0;entryX=0;entryY=0.5;entryDx=0;entryDy=0;" parent="bn_BLgUIFz1hkSgKW1F4-28" source="bn_BLgUIFz1hkSgKW1F4-23" target="bn_BLgUIFz1hkSgKW1F4-22" edge="1">
          <mxGeometry relative="1" as="geometry" />
        </mxCell>
        <mxCell id="bn_BLgUIFz1hkSgKW1F4-23" value="UnsubscribeHandler" style="rounded=0;whiteSpace=wrap;html=1;" parent="bn_BLgUIFz1hkSgKW1F4-28" vertex="1">
          <mxGeometry x="301.9178082191781" y="125.13" width="124.93150684931506" height="60" as="geometry" />
        </mxCell>
        <mxCell id="AvhkuW_tIZUupY4tq_w7-17" style="edgeStyle=orthogonalEdgeStyle;rounded=0;orthogonalLoop=1;jettySize=auto;html=1;exitX=1;exitY=0.5;exitDx=0;exitDy=0;entryX=0;entryY=0.5;entryDx=0;entryDy=0;" parent="bn_BLgUIFz1hkSgKW1F4-28" source="bn_BLgUIFz1hkSgKW1F4-24" target="bn_BLgUIFz1hkSgKW1F4-22" edge="1">
          <mxGeometry relative="1" as="geometry" />
        </mxCell>
        <mxCell id="bn_BLgUIFz1hkSgKW1F4-24" value="SubscribeHandler" style="rounded=0;whiteSpace=wrap;html=1;fontStyle=0" parent="bn_BLgUIFz1hkSgKW1F4-28" vertex="1">
          <mxGeometry x="301.9178082191781" y="55.129999999999995" width="124.93150684931506" height="60" as="geometry" />
        </mxCell>
        <mxCell id="AvhkuW_tIZUupY4tq_w7-20" style="edgeStyle=orthogonalEdgeStyle;rounded=0;orthogonalLoop=1;jettySize=auto;html=1;exitX=1;exitY=0.5;exitDx=0;exitDy=0;entryX=0;entryY=0.5;entryDx=0;entryDy=0;" parent="bn_BLgUIFz1hkSgKW1F4-28" source="bn_BLgUIFz1hkSgKW1F4-25" target="bn_BLgUIFz1hkSgKW1F4-22" edge="1">
          <mxGeometry relative="1" as="geometry" />
        </mxCell>
        <mxCell id="bn_BLgUIFz1hkSgKW1F4-25" value="CatchupHandler" style="rounded=0;whiteSpace=wrap;html=1;" parent="bn_BLgUIFz1hkSgKW1F4-28" vertex="1">
          <mxGeometry x="301.9178082191781" y="195.13" width="124.93150684931506" height="60" as="geometry" />
        </mxCell>
        <mxCell id="AvhkuW_tIZUupY4tq_w7-22" style="edgeStyle=orthogonalEdgeStyle;rounded=0;orthogonalLoop=1;jettySize=auto;html=1;exitX=1;exitY=0.5;exitDx=0;exitDy=0;entryX=0;entryY=0.5;entryDx=0;entryDy=0;" parent="bn_BLgUIFz1hkSgKW1F4-28" source="bn_BLgUIFz1hkSgKW1F4-26" target="bn_BLgUIFz1hkSgKW1F4-22" edge="1">
          <mxGeometry relative="1" as="geometry" />
        </mxCell>
        <mxCell id="bn_BLgUIFz1hkSgKW1F4-26" value="HeartbeatHandler" style="rounded=0;whiteSpace=wrap;html=1;" parent="bn_BLgUIFz1hkSgKW1F4-28" vertex="1">
          <mxGeometry x="301.9178082191781" y="265.13" width="124.93150684931506" height="60" as="geometry" />
        </mxCell>
        <mxCell id="AvhkuW_tIZUupY4tq_w7-23" style="edgeStyle=orthogonalEdgeStyle;rounded=0;orthogonalLoop=1;jettySize=auto;html=1;exitX=1;exitY=0.5;exitDx=0;exitDy=0;entryX=0;entryY=0.5;entryDx=0;entryDy=0;" parent="bn_BLgUIFz1hkSgKW1F4-28" source="bn_BLgUIFz1hkSgKW1F4-27" target="bn_BLgUIFz1hkSgKW1F4-22" edge="1">
          <mxGeometry relative="1" as="geometry">
            <Array as="points">
              <mxPoint x="524" y="365" />
              <mxPoint x="524" y="225" />
            </Array>
          </mxGeometry>
        </mxCell>
        <mxCell id="bn_BLgUIFz1hkSgKW1F4-27" value="&lt;div&gt;GetMessagesByIdHandler&lt;/div&gt;" style="rounded=0;whiteSpace=wrap;html=1;" parent="bn_BLgUIFz1hkSgKW1F4-28" vertex="1">
          <mxGeometry x="301.9178082191781" y="335.13" width="156.16438356164383" height="60" as="geometry" />
        </mxCell>
        <mxCell id="bn_BLgUIFz1hkSgKW1F4-22" value="handlerMerger" style="ellipse;whiteSpace=wrap;html=1;fillColor=#dae8fc;strokeColor=#6c8ebf;" parent="bn_BLgUIFz1hkSgKW1F4-28" vertex="1">
          <mxGeometry x="619.9998630136986" y="185.13" width="124.93150684931506" height="80" as="geometry" />
        </mxCell>
        <mxCell id="bP3-Mi6xDnzUDd8L-1Sg-10" style="edgeStyle=orthogonalEdgeStyle;rounded=0;orthogonalLoop=1;jettySize=auto;html=1;exitX=0.5;exitY=0;exitDx=0;exitDy=0;entryX=0.5;entryY=1;entryDx=0;entryDy=0;" parent="1" source="bP3-Mi6xDnzUDd8L-1Sg-11" target="bP3-Mi6xDnzUDd8L-1Sg-13" edge="1">
          <mxGeometry relative="1" as="geometry" />
        </mxCell>
        <mxCell id="bP3-Mi6xDnzUDd8L-1Sg-11" value="SchemaVerifier" style="rounded=0;whiteSpace=wrap;html=1;" parent="1" vertex="1">
          <mxGeometry x="-380" y="570" width="120" height="60" as="geometry" />
        </mxCell>
        <mxCell id="bn_BLgUIFz1hkSgKW1F4-14" style="edgeStyle=orthogonalEdgeStyle;rounded=0;orthogonalLoop=1;jettySize=auto;html=1;exitX=0.5;exitY=0;exitDx=0;exitDy=0;entryX=0.5;entryY=1;entryDx=0;entryDy=0;" parent="1" source="bP3-Mi6xDnzUDd8L-1Sg-13" target="bn_BLgUIFz1hkSgKW1F4-1" edge="1">
          <mxGeometry relative="1" as="geometry" />
        </mxCell>
        <mxCell id="bP3-Mi6xDnzUDd8L-1Sg-13" value="Decoder (Parser)&lt;br&gt;until Message" style="rounded=0;whiteSpace=wrap;html=1;" parent="1" vertex="1">
          <mxGeometry x="-380" y="450" width="120" height="60" as="geometry" />
        </mxCell>
        <mxCell id="bP3-Mi6xDnzUDd8L-1Sg-16" style="edgeStyle=orthogonalEdgeStyle;rounded=0;orthogonalLoop=1;jettySize=auto;html=1;exitX=0.5;exitY=1;exitDx=0;exitDy=0;" parent="1" edge="1">
          <mxGeometry relative="1" as="geometry">
            <mxPoint x="860" y="360" as="sourcePoint" />
            <mxPoint x="860" y="360" as="targetPoint" />
          </mxGeometry>
        </mxCell>
        <mxCell id="AvhkuW_tIZUupY4tq_w7-28" style="edgeStyle=orthogonalEdgeStyle;rounded=0;orthogonalLoop=1;jettySize=auto;html=1;exitX=1;exitY=0.5;exitDx=0;exitDy=0;entryX=0;entryY=0.5;entryDx=0;entryDy=0;" parent="1" source="bP3-Mi6xDnzUDd8L-1Sg-18" target="AvhkuW_tIZUupY4tq_w7-27" edge="1">
          <mxGeometry relative="1" as="geometry" />
        </mxCell>
        <mxCell id="bP3-Mi6xDnzUDd8L-1Sg-18" value="merger" style="ellipse;whiteSpace=wrap;html=1;fillColor=#dae8fc;strokeColor=#6c8ebf;" parent="1" vertex="1">
          <mxGeometry x="1260" y="320" width="120" height="80" as="geometry" />
        </mxCell>
        <mxCell id="bP3-Mi6xDnzUDd8L-1Sg-19" style="edgeStyle=orthogonalEdgeStyle;rounded=0;orthogonalLoop=1;jettySize=auto;html=1;exitX=1;exitY=0.5;exitDx=0;exitDy=0;entryX=0;entryY=0.5;entryDx=0;entryDy=0;" parent="1" source="bP3-Mi6xDnzUDd8L-1Sg-20" target="bP3-Mi6xDnzUDd8L-1Sg-50" edge="1">
          <mxGeometry relative="1" as="geometry" />
        </mxCell>
        <mxCell id="bP3-Mi6xDnzUDd8L-1Sg-20" value="SOURCE&lt;br&gt;(input)" style="ellipse;whiteSpace=wrap;html=1;fillColor=#dae8fc;strokeColor=#6c8ebf;" parent="1" vertex="1">
          <mxGeometry x="-760" y="560" width="120" height="80" as="geometry" />
        </mxCell>
        <mxCell id="bP3-Mi6xDnzUDd8L-1Sg-21" style="edgeStyle=orthogonalEdgeStyle;rounded=0;orthogonalLoop=1;jettySize=auto;html=1;fillColor=#e1d5e7;strokeColor=#9673a6;" parent="1" source="bP3-Mi6xDnzUDd8L-1Sg-22" edge="1">
          <mxGeometry relative="1" as="geometry">
            <mxPoint x="-600" y="360" as="targetPoint" />
          </mxGeometry>
        </mxCell>
        <mxCell id="bP3-Mi6xDnzUDd8L-1Sg-22" value="DB" style="shape=cylinder3;whiteSpace=wrap;html=1;boundedLbl=1;backgroundOutline=1;size=15;fillColor=#e1d5e7;strokeColor=#9673a6;" parent="1" vertex="1">
          <mxGeometry x="-730" y="320" width="60" height="80" as="geometry" />
        </mxCell>
        <mxCell id="bP3-Mi6xDnzUDd8L-1Sg-23" style="edgeStyle=orthogonalEdgeStyle;rounded=0;orthogonalLoop=1;jettySize=auto;html=1;fillColor=#e1d5e7;strokeColor=#9673a6;" parent="1" source="bP3-Mi6xDnzUDd8L-1Sg-25" target="bP3-Mi6xDnzUDd8L-1Sg-22" edge="1">
          <mxGeometry relative="1" as="geometry" />
        </mxCell>
        <mxCell id="bP3-Mi6xDnzUDd8L-1Sg-24" style="edgeStyle=orthogonalEdgeStyle;rounded=0;orthogonalLoop=1;jettySize=auto;html=1;entryX=0.5;entryY=1;entryDx=0;entryDy=0;fillColor=#e1d5e7;strokeColor=#9673a6;" parent="1" source="bP3-Mi6xDnzUDd8L-1Sg-25" edge="1">
          <mxGeometry relative="1" as="geometry">
            <mxPoint x="-540" y="230" as="targetPoint" />
          </mxGeometry>
        </mxCell>
        <mxCell id="bP3-Mi6xDnzUDd8L-1Sg-25" value="DbActor" style="rounded=0;whiteSpace=wrap;html=1;fillColor=#e1d5e7;strokeColor=#9673a6;" parent="1" vertex="1">
          <mxGeometry x="-600" y="330" width="120" height="60" as="geometry" />
        </mxCell>
        <mxCell id="bP3-Mi6xDnzUDd8L-1Sg-26" style="edgeStyle=orthogonalEdgeStyle;rounded=0;orthogonalLoop=1;jettySize=auto;html=1;entryX=0.5;entryY=0;entryDx=0;entryDy=0;fillColor=#e1d5e7;strokeColor=#9673a6;" parent="1" target="bP3-Mi6xDnzUDd8L-1Sg-25" edge="1">
          <mxGeometry relative="1" as="geometry">
            <mxPoint x="-540" y="230" as="sourcePoint" />
          </mxGeometry>
        </mxCell>
        <mxCell id="bP3-Mi6xDnzUDd8L-1Sg-27" value="Ask pattern" style="edgeLabel;html=1;align=center;verticalAlign=middle;resizable=0;points=[];" parent="bP3-Mi6xDnzUDd8L-1Sg-26" vertex="1" connectable="0">
          <mxGeometry x="0.02" y="-2" relative="1" as="geometry">
            <mxPoint as="offset" />
          </mxGeometry>
        </mxCell>
        <mxCell id="bP3-Mi6xDnzUDd8L-1Sg-28" style="edgeStyle=orthogonalEdgeStyle;rounded=0;orthogonalLoop=1;jettySize=auto;html=1;entryX=0.5;entryY=0;entryDx=0;entryDy=0;" parent="1" source="bP3-Mi6xDnzUDd8L-1Sg-29" target="bP3-Mi6xDnzUDd8L-1Sg-32" edge="1">
          <mxGeometry relative="1" as="geometry" />
        </mxCell>
        <mxCell id="bP3-Mi6xDnzUDd8L-1Sg-29" value="AnswerGenerator" style="rounded=0;whiteSpace=wrap;html=1;" parent="1" vertex="1">
          <mxGeometry x="1620" y="330" width="120" height="60" as="geometry" />
        </mxCell>
        <mxCell id="bP3-Mi6xDnzUDd8L-1Sg-30" style="edgeStyle=orthogonalEdgeStyle;rounded=0;orthogonalLoop=1;jettySize=auto;html=1;exitX=0.5;exitY=1;exitDx=0;exitDy=0;entryX=0.5;entryY=1;entryDx=0;entryDy=0;" parent="1" source="bP3-Mi6xDnzUDd8L-1Sg-32" target="bP3-Mi6xDnzUDd8L-1Sg-50" edge="1">
          <mxGeometry relative="1" as="geometry">
            <mxPoint x="1540" y="720" as="targetPoint" />
            <Array as="points">
              <mxPoint x="1680" y="920" />
              <mxPoint x="-540" y="920" />
            </Array>
          </mxGeometry>
        </mxCell>
        <mxCell id="bP3-Mi6xDnzUDd8L-1Sg-31" style="edgeStyle=orthogonalEdgeStyle;rounded=0;orthogonalLoop=1;jettySize=auto;html=1;entryX=0;entryY=0.5;entryDx=0;entryDy=0;" parent="1" source="bP3-Mi6xDnzUDd8L-1Sg-32" target="bP3-Mi6xDnzUDd8L-1Sg-33" edge="1">
          <mxGeometry relative="1" as="geometry" />
        </mxCell>
        <mxCell id="bP3-Mi6xDnzUDd8L-1Sg-32" value="Answerer" style="rounded=0;whiteSpace=wrap;html=1;" parent="1" vertex="1">
          <mxGeometry x="1620" y="450" width="120" height="60" as="geometry" />
        </mxCell>
        <mxCell id="bP3-Mi6xDnzUDd8L-1Sg-33" value="SINK" style="ellipse;whiteSpace=wrap;html=1;fillColor=#dae8fc;strokeColor=#6c8ebf;" parent="1" vertex="1">
          <mxGeometry x="1780" y="440" width="120" height="80" as="geometry" />
        </mxCell>
        <mxCell id="AvhkuW_tIZUupY4tq_w7-12" style="edgeStyle=orthogonalEdgeStyle;rounded=0;orthogonalLoop=1;jettySize=auto;html=1;exitX=0.5;exitY=1;exitDx=0;exitDy=0;entryX=0;entryY=0.5;entryDx=0;entryDy=0;" parent="1" source="bP3-Mi6xDnzUDd8L-1Sg-43" target="bn_BLgUIFz1hkSgKW1F4-24" edge="1">
          <mxGeometry relative="1" as="geometry" />
        </mxCell>
        <mxCell id="AvhkuW_tIZUupY4tq_w7-13" style="edgeStyle=orthogonalEdgeStyle;rounded=0;orthogonalLoop=1;jettySize=auto;html=1;exitX=0.5;exitY=1;exitDx=0;exitDy=0;entryX=0;entryY=0.5;entryDx=0;entryDy=0;" parent="1" source="bP3-Mi6xDnzUDd8L-1Sg-43" target="bn_BLgUIFz1hkSgKW1F4-23" edge="1">
          <mxGeometry relative="1" as="geometry" />
        </mxCell>
        <mxCell id="AvhkuW_tIZUupY4tq_w7-14" style="edgeStyle=orthogonalEdgeStyle;rounded=0;orthogonalLoop=1;jettySize=auto;html=1;exitX=0.5;exitY=1;exitDx=0;exitDy=0;entryX=0;entryY=0.5;entryDx=0;entryDy=0;" parent="1" source="bP3-Mi6xDnzUDd8L-1Sg-43" target="bn_BLgUIFz1hkSgKW1F4-25" edge="1">
          <mxGeometry relative="1" as="geometry" />
        </mxCell>
        <mxCell id="AvhkuW_tIZUupY4tq_w7-15" style="edgeStyle=orthogonalEdgeStyle;rounded=0;orthogonalLoop=1;jettySize=auto;html=1;exitX=0.5;exitY=1;exitDx=0;exitDy=0;entryX=0;entryY=0.5;entryDx=0;entryDy=0;" parent="1" source="bP3-Mi6xDnzUDd8L-1Sg-43" target="bn_BLgUIFz1hkSgKW1F4-26" edge="1">
          <mxGeometry relative="1" as="geometry" />
        </mxCell>
        <mxCell id="AvhkuW_tIZUupY4tq_w7-16" style="edgeStyle=orthogonalEdgeStyle;rounded=0;orthogonalLoop=1;jettySize=auto;html=1;entryX=0;entryY=0.5;entryDx=0;entryDy=0;" parent="1" source="bP3-Mi6xDnzUDd8L-1Sg-43" target="bn_BLgUIFz1hkSgKW1F4-27" edge="1">
          <mxGeometry relative="1" as="geometry">
            <Array as="points">
              <mxPoint x="60" y="825" />
            </Array>
          </mxGeometry>
        </mxCell>
        <mxCell id="bP3-Mi6xDnzUDd8L-1Sg-43" value="PARTITIONER&lt;br&gt;depending trait Method" style="ellipse;whiteSpace=wrap;html=1;fillColor=#dae8fc;strokeColor=#6c8ebf;" parent="1" vertex="1">
          <mxGeometry y="310" width="120" height="80" as="geometry" />
        </mxCell>
        <mxCell id="bP3-Mi6xDnzUDd8L-1Sg-48" style="edgeStyle=orthogonalEdgeStyle;rounded=0;orthogonalLoop=1;jettySize=auto;html=1;exitX=1;exitY=0.5;exitDx=0;exitDy=0;entryX=0;entryY=0.5;entryDx=0;entryDy=0;" parent="1" source="bP3-Mi6xDnzUDd8L-1Sg-50" target="bP3-Mi6xDnzUDd8L-1Sg-11" edge="1">
          <mxGeometry relative="1" as="geometry" />
        </mxCell>
        <mxCell id="bP3-Mi6xDnzUDd8L-1Sg-49" style="edgeStyle=orthogonalEdgeStyle;rounded=0;orthogonalLoop=1;jettySize=auto;html=1;exitX=0;exitY=0.5;exitDx=0;exitDy=0;" parent="1" source="bP3-Mi6xDnzUDd8L-1Sg-50" edge="1">
          <mxGeometry relative="1" as="geometry">
            <mxPoint x="-640" y="600" as="targetPoint" />
          </mxGeometry>
        </mxCell>
        <mxCell id="bP3-Mi6xDnzUDd8L-1Sg-50" value="ClientActor&lt;br&gt;(represents the Source = Client)" style="rounded=0;whiteSpace=wrap;html=1;fillColor=#e1d5e7;strokeColor=#9673a6;" parent="1" vertex="1">
          <mxGeometry x="-600" y="570" width="120" height="60" as="geometry" />
        </mxCell>
        <mxCell id="bP3-Mi6xDnzUDd8L-1Sg-64" style="edgeStyle=orthogonalEdgeStyle;rounded=0;orthogonalLoop=1;jettySize=auto;html=1;exitX=0.5;exitY=1;exitDx=0;exitDy=0;" parent="1" edge="1">
          <mxGeometry relative="1" as="geometry">
            <mxPoint x="860" y="600" as="sourcePoint" />
            <mxPoint x="860" y="600" as="targetPoint" />
          </mxGeometry>
        </mxCell>
        <mxCell id="bn_BLgUIFz1hkSgKW1F4-16" style="edgeStyle=orthogonalEdgeStyle;rounded=0;orthogonalLoop=1;jettySize=auto;html=1;exitX=1;exitY=0.5;exitDx=0;exitDy=0;entryX=0;entryY=0.5;entryDx=0;entryDy=0;" parent="1" source="bn_BLgUIFz1hkSgKW1F4-1" target="bn_BLgUIFz1hkSgKW1F4-13" edge="1">
          <mxGeometry relative="1" as="geometry" />
        </mxCell>
        <mxCell id="AvhkuW_tIZUupY4tq_w7-32" style="edgeStyle=orthogonalEdgeStyle;rounded=0;orthogonalLoop=1;jettySize=auto;html=1;exitX=0.5;exitY=0;exitDx=0;exitDy=0;entryX=0;entryY=0.5;entryDx=0;entryDy=0;" parent="1" source="bn_BLgUIFz1hkSgKW1F4-1" target="AvhkuW_tIZUupY4tq_w7-31" edge="1">
          <mxGeometry relative="1" as="geometry" />
        </mxCell>
        <mxCell id="bn_BLgUIFz1hkSgKW1F4-1" value="PARTITIONER&lt;br&gt;&lt;div&gt;depending trait JsonRpcRequest&lt;/div&gt;&lt;div&gt;JsonRpcResponse&lt;/div&gt;" style="ellipse;whiteSpace=wrap;html=1;fillColor=#dae8fc;strokeColor=#6c8ebf;" parent="1" vertex="1">
          <mxGeometry x="-380" y="310" width="120" height="80" as="geometry" />
        </mxCell>
        <mxCell id="bn_BLgUIFz1hkSgKW1F4-15" style="edgeStyle=orthogonalEdgeStyle;rounded=0;orthogonalLoop=1;jettySize=auto;html=1;exitX=1;exitY=0.5;exitDx=0;exitDy=0;entryX=0;entryY=0.5;entryDx=0;entryDy=0;" parent="1" source="bn_BLgUIFz1hkSgKW1F4-13" target="bP3-Mi6xDnzUDd8L-1Sg-43" edge="1">
          <mxGeometry relative="1" as="geometry" />
        </mxCell>
        <mxCell id="bn_BLgUIFz1hkSgKW1F4-13" value="ContentValidator&lt;br&gt;until Message" style="rounded=0;whiteSpace=wrap;html=1;" parent="1" vertex="1">
          <mxGeometry x="-180" y="320" width="120" height="60" as="geometry" />
        </mxCell>
        <mxCell id="AvhkuW_tIZUupY4tq_w7-6" value="" style="group;fillColor=#d5e8d4;strokeColor=#82b366;" parent="1" vertex="1" connectable="0">
          <mxGeometry x="380" y="150" width="760" height="290" as="geometry" />
        </mxCell>
        <mxCell id="AvhkuW_tIZUupY4tq_w7-7" value="" style="rounded=0;whiteSpace=wrap;html=1;strokeColor=#82b366;fillColor=#d5e8d4;glass=0;shadow=0;sketch=0;dashed=1;strokeWidth=2;" parent="AvhkuW_tIZUupY4tq_w7-6" vertex="1">
          <mxGeometry width="760" height="290" as="geometry" />
        </mxCell>
        <mxCell id="AvhkuW_tIZUupY4tq_w7-8" value="&lt;font style=&quot;font-size: 18px;&quot;&gt;ParamsWithMessageHandler&lt;font style=&quot;font-size: 18px;&quot;&gt;&lt;br&gt;&lt;/font&gt;&lt;/font&gt;" style="text;html=1;strokeColor=none;fillColor=none;align=center;verticalAlign=middle;whiteSpace=wrap;rounded=0;shadow=0;glass=0;dashed=1;sketch=0;" parent="AvhkuW_tIZUupY4tq_w7-6" vertex="1">
          <mxGeometry y="1" width="250" height="49" as="geometry" />
        </mxCell>
        <mxCell id="AvhkuW_tIZUupY4tq_w7-11" style="edgeStyle=orthogonalEdgeStyle;rounded=0;orthogonalLoop=1;jettySize=auto;html=1;exitX=1;exitY=0.5;exitDx=0;exitDy=0;entryX=0;entryY=0.5;entryDx=0;entryDy=0;" parent="AvhkuW_tIZUupY4tq_w7-6" source="AvhkuW_tIZUupY4tq_w7-4" target="AvhkuW_tIZUupY4tq_w7-3" edge="1">
          <mxGeometry relative="1" as="geometry" />
        </mxCell>
        <mxCell id="AvhkuW_tIZUupY4tq_w7-4" value="Decoder (Parser)&lt;br&gt;from Message" style="rounded=0;whiteSpace=wrap;html=1;" parent="AvhkuW_tIZUupY4tq_w7-6" vertex="1">
          <mxGeometry x="120" y="170" width="100" height="60" as="geometry" />
        </mxCell>
        <mxCell id="AvhkuW_tIZUupY4tq_w7-10" value="" style="edgeStyle=orthogonalEdgeStyle;rounded=0;orthogonalLoop=1;jettySize=auto;html=1;" parent="AvhkuW_tIZUupY4tq_w7-6" source="AvhkuW_tIZUupY4tq_w7-3" target="AvhkuW_tIZUupY4tq_w7-1" edge="1">
          <mxGeometry relative="1" as="geometry" />
        </mxCell>
        <mxCell id="AvhkuW_tIZUupY4tq_w7-3" value="ContentValidator&lt;br&gt;from Message" style="rounded=0;whiteSpace=wrap;html=1;" parent="AvhkuW_tIZUupY4tq_w7-6" vertex="1">
          <mxGeometry x="280" y="170.01" width="120" height="60" as="geometry" />
        </mxCell>
        <mxCell id="AvhkuW_tIZUupY4tq_w7-1" value="Handlers" style="shape=cube;whiteSpace=wrap;html=1;boundedLbl=1;backgroundOutline=1;darkOpacity=0.05;darkOpacity2=0.1;" parent="AvhkuW_tIZUupY4tq_w7-6" vertex="1">
          <mxGeometry x="450" y="153.3400000000001" width="140" height="93.33" as="geometry" />
        </mxCell>
        <mxCell id="bP3-Mi6xDnzUDd8L-1Sg-37" style="edgeStyle=orthogonalEdgeStyle;rounded=0;orthogonalLoop=1;jettySize=auto;html=1;entryX=0;entryY=0.5;entryDx=0;entryDy=0;" parent="1" source="bP3-Mi6xDnzUDd8L-1Sg-43" target="AvhkuW_tIZUupY4tq_w7-4" edge="1">
          <mxGeometry relative="1" as="geometry">
            <mxPoint x="460.00000000000045" y="360" as="targetPoint" />
          </mxGeometry>
        </mxCell>
        <mxCell id="bP3-Mi6xDnzUDd8L-1Sg-38" value="Publish&lt;br&gt;Broadcast" style="edgeLabel;html=1;align=center;verticalAlign=middle;resizable=0;points=[];" parent="bP3-Mi6xDnzUDd8L-1Sg-37" vertex="1" connectable="0">
          <mxGeometry x="0.2941" y="-1" relative="1" as="geometry">
            <mxPoint x="74" as="offset" />
          </mxGeometry>
        </mxCell>
        <mxCell id="bP3-Mi6xDnzUDd8L-1Sg-39" value="1" style="edgeLabel;html=1;align=center;verticalAlign=middle;resizable=0;points=[];" parent="bP3-Mi6xDnzUDd8L-1Sg-37" vertex="1" connectable="0">
          <mxGeometry x="-0.2118" y="-2" relative="1" as="geometry">
            <mxPoint x="-47" y="-2" as="offset" />
          </mxGeometry>
        </mxCell>
        <mxCell id="AvhkuW_tIZUupY4tq_w7-2" value="LaoHandler,&amp;nbsp;&lt;br&gt;RollCallHandler,&lt;br&gt;&lt;font style=&quot;font-size: 18px&quot;&gt;...&lt;/font&gt;" style="whiteSpace=wrap;html=1;shape=mxgraph.basic.cloud_callout" parent="1" vertex="1">
          <mxGeometry x="930" y="180" width="170" height="120" as="geometry" />
        </mxCell>
        <mxCell id="AvhkuW_tIZUupY4tq_w7-9" style="edgeStyle=orthogonalEdgeStyle;rounded=0;orthogonalLoop=1;jettySize=auto;html=1;exitX=0;exitY=0;exitDx=140;exitDy=56.665;exitPerimeter=0;" parent="1" source="AvhkuW_tIZUupY4tq_w7-1" target="bP3-Mi6xDnzUDd8L-1Sg-18" edge="1">
          <mxGeometry relative="1" as="geometry" />
        </mxCell>
        <mxCell id="AvhkuW_tIZUupY4tq_w7-24" style="edgeStyle=orthogonalEdgeStyle;rounded=0;orthogonalLoop=1;jettySize=auto;html=1;exitX=1;exitY=0.5;exitDx=0;exitDy=0;" parent="1" source="bn_BLgUIFz1hkSgKW1F4-22" target="bP3-Mi6xDnzUDd8L-1Sg-18" edge="1">
          <mxGeometry relative="1" as="geometry" />
        </mxCell>
        <mxCell id="h2m_qgQeDr8gfqKIIPhP-10" value="" style="edgeStyle=orthogonalEdgeStyle;rounded=0;orthogonalLoop=1;jettySize=auto;html=1;" edge="1" parent="1" source="AvhkuW_tIZUupY4tq_w7-26" target="h2m_qgQeDr8gfqKIIPhP-9">
          <mxGeometry relative="1" as="geometry" />
        </mxCell>
        <mxCell id="h2m_qgQeDr8gfqKIIPhP-11" value="Watch&lt;br&gt;" style="edgeLabel;html=1;align=center;verticalAlign=middle;resizable=0;points=[];" vertex="1" connectable="0" parent="h2m_qgQeDr8gfqKIIPhP-10">
          <mxGeometry x="-0.2642" y="2" relative="1" as="geometry">
            <mxPoint as="offset" />
          </mxGeometry>
        </mxCell>
        <mxCell id="AvhkuW_tIZUupY4tq_w7-26" value="Monitor" style="rounded=0;whiteSpace=wrap;html=1;" parent="1" vertex="1">
          <mxGeometry x="1440" y="220" width="120" height="60" as="geometry" />
        </mxCell>
        <mxCell id="AvhkuW_tIZUupY4tq_w7-29" style="edgeStyle=orthogonalEdgeStyle;rounded=0;orthogonalLoop=1;jettySize=auto;html=1;exitX=1;exitY=0.5;exitDx=0;exitDy=0;entryX=0;entryY=0.5;entryDx=0;entryDy=0;" parent="1" source="AvhkuW_tIZUupY4tq_w7-27" target="bP3-Mi6xDnzUDd8L-1Sg-29" edge="1">
          <mxGeometry relative="1" as="geometry" />
        </mxCell>
        <mxCell id="AvhkuW_tIZUupY4tq_w7-30" style="edgeStyle=orthogonalEdgeStyle;rounded=0;orthogonalLoop=1;jettySize=auto;html=1;exitX=0.5;exitY=0;exitDx=0;exitDy=0;" parent="1" source="AvhkuW_tIZUupY4tq_w7-27" target="AvhkuW_tIZUupY4tq_w7-26" edge="1">
          <mxGeometry relative="1" as="geometry" />
        </mxCell>
        <mxCell id="AvhkuW_tIZUupY4tq_w7-27" value="Broadcast" style="ellipse;whiteSpace=wrap;html=1;fillColor=#dae8fc;strokeColor=#6c8ebf;" parent="1" vertex="1">
          <mxGeometry x="1440" y="320" width="120" height="80" as="geometry" />
        </mxCell>
        <mxCell id="bP3-Mi6xDnzUDd8L-1Sg-40" style="edgeStyle=orthogonalEdgeStyle;rounded=0;orthogonalLoop=1;jettySize=auto;html=1;exitX=0.5;exitY=0;exitDx=0;exitDy=0;entryX=0.5;entryY=0;entryDx=0;entryDy=0;" parent="1" source="bP3-Mi6xDnzUDd8L-1Sg-43" target="bP3-Mi6xDnzUDd8L-1Sg-18" edge="1">
          <mxGeometry relative="1" as="geometry">
            <mxPoint x="1060" y="310" as="targetPoint" />
            <Array as="points">
              <mxPoint x="60" y="120" />
              <mxPoint x="1320" y="120" />
            </Array>
          </mxGeometry>
        </mxCell>
        <mxCell id="bP3-Mi6xDnzUDd8L-1Sg-41" value="PipelineError" style="edgeLabel;html=1;align=center;verticalAlign=middle;resizable=0;points=[];" parent="bP3-Mi6xDnzUDd8L-1Sg-40" vertex="1" connectable="0">
          <mxGeometry x="0.438" relative="1" as="geometry">
            <mxPoint x="-110" as="offset" />
          </mxGeometry>
        </mxCell>
        <mxCell id="bP3-Mi6xDnzUDd8L-1Sg-42" value="0" style="edgeLabel;html=1;align=center;verticalAlign=middle;resizable=0;points=[];" parent="bP3-Mi6xDnzUDd8L-1Sg-40" vertex="1" connectable="0">
          <mxGeometry x="-0.9524" y="-1" relative="1" as="geometry">
            <mxPoint x="-2" y="17" as="offset" />
          </mxGeometry>
        </mxCell>
        <mxCell id="AvhkuW_tIZUupY4tq_w7-38" value="&lt;font style=&quot;font-size: 8px;&quot;&gt;0&lt;/font&gt;" style="rounded=0;whiteSpace=wrap;html=1;strokeColor=none;" parent="1" vertex="1">
          <mxGeometry x="-325" y="290" width="10" height="10" as="geometry" />
        </mxCell>
        <mxCell id="AvhkuW_tIZUupY4tq_w7-40" value="&lt;font style=&quot;font-size: 8px;&quot;&gt;1&lt;/font&gt;" style="rounded=0;whiteSpace=wrap;html=1;strokeColor=none;" parent="1" vertex="1">
          <mxGeometry x="-240" y="345" width="10" height="10" as="geometry" />
        </mxCell>
        <mxCell id="h2m_qgQeDr8gfqKIIPhP-1" style="edgeStyle=orthogonalEdgeStyle;rounded=0;orthogonalLoop=1;jettySize=auto;html=1;exitX=0.5;exitY=0;exitDx=0;exitDy=0;" edge="1" parent="1">
          <mxGeometry relative="1" as="geometry">
            <mxPoint x="1499.5" y="220" as="sourcePoint" />
            <mxPoint x="1499.5" y="180" as="targetPoint" />
            <Array as="points">
              <mxPoint x="1499.5" y="220" />
              <mxPoint x="1499.5" y="220" />
            </Array>
          </mxGeometry>
        </mxCell>
        <mxCell id="h2m_qgQeDr8gfqKIIPhP-5" value="" style="edgeStyle=orthogonalEdgeStyle;rounded=0;orthogonalLoop=1;jettySize=auto;html=1;" edge="1" parent="1" source="h2m_qgQeDr8gfqKIIPhP-2" target="h2m_qgQeDr8gfqKIIPhP-3">
          <mxGeometry relative="1" as="geometry" />
        </mxCell>
        <mxCell id="h2m_qgQeDr8gfqKIIPhP-2" value="HeartbeatGenerator&lt;br&gt;" style="rounded=0;whiteSpace=wrap;html=1;" vertex="1" parent="1">
          <mxGeometry x="1440" y="120" width="120" height="60" as="geometry" />
        </mxCell>
        <mxCell id="h2m_qgQeDr8gfqKIIPhP-8" value="" style="edgeStyle=orthogonalEdgeStyle;rounded=0;orthogonalLoop=1;jettySize=auto;html=1;" edge="1" parent="1" source="h2m_qgQeDr8gfqKIIPhP-3" target="h2m_qgQeDr8gfqKIIPhP-6">
          <mxGeometry relative="1" as="geometry" />
        </mxCell>
        <mxCell id="h2m_qgQeDr8gfqKIIPhP-3" value="ConnectionMediator&lt;br&gt;" style="rounded=0;whiteSpace=wrap;html=1;" vertex="1" parent="1">
          <mxGeometry x="1440" y="10" width="120" height="60" as="geometry" />
        </mxCell>
        <mxCell id="h2m_qgQeDr8gfqKIIPhP-6" value="Connected servers&lt;br&gt;" style="ellipse;shape=cloud;whiteSpace=wrap;html=1;" vertex="1" parent="1">
          <mxGeometry x="1415" y="-160" width="170" height="110" as="geometry" />
        </mxCell>
        <mxCell id="h2m_qgQeDr8gfqKIIPhP-9" value="List &amp;nbsp;of connected server peers&lt;br&gt;" style="whiteSpace=wrap;html=1;aspect=fixed;" vertex="1" parent="1">
          <mxGeometry x="1620" y="160" width="80" height="80" as="geometry" />
        </mxCell>
      </root>
    </mxGraphModel>
  </diagram>
  <diagram name="be2-s" id="Ct9u2FuX5Z5Ls4cjT5JY">
    <mxGraphModel dx="2603" dy="778" grid="1" gridSize="10" guides="1" tooltips="1" connect="1" arrows="1" fold="1" page="1" pageScale="1" pageWidth="1169" pageHeight="827" math="0" shadow="0">
      <root>
        <mxCell id="vNYUUVMX6C41dm5Dhd-K-0" />
        <mxCell id="vNYUUVMX6C41dm5Dhd-K-1" parent="vNYUUVMX6C41dm5Dhd-K-0" />
        <mxCell id="dGtZM3y6No2JxKleKozX-2" style="edgeStyle=orthogonalEdgeStyle;rounded=0;orthogonalLoop=1;jettySize=auto;html=1;exitX=0.5;exitY=1;exitDx=0;exitDy=0;entryX=0.5;entryY=0;entryDx=0;entryDy=0;" parent="vNYUUVMX6C41dm5Dhd-K-1" source="vNYUUVMX6C41dm5Dhd-K-29" target="vNYUUVMX6C41dm5Dhd-K-61" edge="1">
          <mxGeometry relative="1" as="geometry" />
        </mxCell>
        <mxCell id="vNYUUVMX6C41dm5Dhd-K-29" value="SOURCE&lt;br&gt;(input)" style="ellipse;whiteSpace=wrap;html=1;fillColor=#dae8fc;strokeColor=#6c8ebf;" parent="vNYUUVMX6C41dm5Dhd-K-1" vertex="1">
          <mxGeometry x="-240" y="160" width="120" height="80" as="geometry" />
        </mxCell>
        <mxCell id="vNYUUVMX6C41dm5Dhd-K-30" style="edgeStyle=orthogonalEdgeStyle;rounded=0;orthogonalLoop=1;jettySize=auto;html=1;fillColor=#e1d5e7;strokeColor=#9673a6;" parent="vNYUUVMX6C41dm5Dhd-K-1" source="vNYUUVMX6C41dm5Dhd-K-31" edge="1">
          <mxGeometry relative="1" as="geometry">
            <mxPoint x="250" y="150" as="targetPoint" />
          </mxGeometry>
        </mxCell>
        <mxCell id="vNYUUVMX6C41dm5Dhd-K-31" value="DB" style="shape=cylinder3;whiteSpace=wrap;html=1;boundedLbl=1;backgroundOutline=1;size=15;fillColor=#e1d5e7;strokeColor=#9673a6;" parent="vNYUUVMX6C41dm5Dhd-K-1" vertex="1">
          <mxGeometry x="120" y="110" width="60" height="80" as="geometry" />
        </mxCell>
        <mxCell id="vNYUUVMX6C41dm5Dhd-K-32" style="edgeStyle=orthogonalEdgeStyle;rounded=0;orthogonalLoop=1;jettySize=auto;html=1;fillColor=#e1d5e7;strokeColor=#9673a6;" parent="vNYUUVMX6C41dm5Dhd-K-1" target="vNYUUVMX6C41dm5Dhd-K-31" edge="1">
          <mxGeometry relative="1" as="geometry">
            <mxPoint x="250" y="150" as="sourcePoint" />
          </mxGeometry>
        </mxCell>
        <mxCell id="vNYUUVMX6C41dm5Dhd-K-88" style="edgeStyle=orthogonalEdgeStyle;rounded=0;orthogonalLoop=1;jettySize=auto;html=1;exitX=1;exitY=0.5;exitDx=0;exitDy=0;entryX=0;entryY=0.5;entryDx=0;entryDy=0;" parent="vNYUUVMX6C41dm5Dhd-K-1" source="vNYUUVMX6C41dm5Dhd-K-38" target="vNYUUVMX6C41dm5Dhd-K-42" edge="1">
          <mxGeometry relative="1" as="geometry" />
        </mxCell>
        <mxCell id="dGtZM3y6No2JxKleKozX-0" style="edgeStyle=orthogonalEdgeStyle;rounded=0;orthogonalLoop=1;jettySize=auto;html=1;exitX=1;exitY=0.5;exitDx=0;exitDy=0;entryX=0.5;entryY=1;entryDx=0;entryDy=0;" parent="vNYUUVMX6C41dm5Dhd-K-1" source="vNYUUVMX6C41dm5Dhd-K-38" target="vNYUUVMX6C41dm5Dhd-K-61" edge="1">
          <mxGeometry relative="1" as="geometry">
            <mxPoint x="760" y="520" as="targetPoint" />
            <Array as="points">
              <mxPoint x="460" y="320" />
              <mxPoint x="460" y="520" />
              <mxPoint x="-180" y="520" />
            </Array>
          </mxGeometry>
        </mxCell>
        <mxCell id="vNYUUVMX6C41dm5Dhd-K-38" value="AnswerGenerator" style="rounded=0;whiteSpace=wrap;html=1;" parent="vNYUUVMX6C41dm5Dhd-K-1" vertex="1">
          <mxGeometry x="320" y="290" width="120" height="60" as="geometry" />
        </mxCell>
        <mxCell id="vNYUUVMX6C41dm5Dhd-K-42" value="SINK" style="ellipse;whiteSpace=wrap;html=1;fillColor=#dae8fc;strokeColor=#6c8ebf;" parent="vNYUUVMX6C41dm5Dhd-K-1" vertex="1">
          <mxGeometry x="480" y="280" width="120" height="80" as="geometry" />
        </mxCell>
        <mxCell id="vNYUUVMX6C41dm5Dhd-K-49" style="edgeStyle=orthogonalEdgeStyle;rounded=0;orthogonalLoop=1;jettySize=auto;html=1;exitX=0.5;exitY=0;exitDx=0;exitDy=0;entryX=0;entryY=0.5;entryDx=0;entryDy=0;" parent="vNYUUVMX6C41dm5Dhd-K-1" source="vNYUUVMX6C41dm5Dhd-K-52" edge="1">
          <mxGeometry relative="1" as="geometry">
            <mxPoint x="320" y="320" as="targetPoint" />
            <Array as="points">
              <mxPoint x="-20" y="240" />
              <mxPoint x="280" y="240" />
              <mxPoint x="280" y="320" />
            </Array>
          </mxGeometry>
        </mxCell>
        <mxCell id="vNYUUVMX6C41dm5Dhd-K-85" value="Pipeline Error" style="edgeLabel;html=1;align=center;verticalAlign=middle;resizable=0;points=[];" parent="vNYUUVMX6C41dm5Dhd-K-49" vertex="1" connectable="0">
          <mxGeometry x="0.056" y="-1" relative="1" as="geometry">
            <mxPoint x="-23" y="-1" as="offset" />
          </mxGeometry>
        </mxCell>
        <mxCell id="vNYUUVMX6C41dm5Dhd-K-79" style="edgeStyle=orthogonalEdgeStyle;rounded=0;orthogonalLoop=1;jettySize=auto;html=1;exitX=0.5;exitY=1;exitDx=0;exitDy=0;entryX=0;entryY=0.5;entryDx=0;entryDy=0;" parent="vNYUUVMX6C41dm5Dhd-K-1" source="vNYUUVMX6C41dm5Dhd-K-52" target="vNYUUVMX6C41dm5Dhd-K-78" edge="1">
          <mxGeometry relative="1" as="geometry" />
        </mxCell>
        <mxCell id="vNYUUVMX6C41dm5Dhd-K-80" style="edgeStyle=orthogonalEdgeStyle;rounded=0;orthogonalLoop=1;jettySize=auto;html=1;exitX=1;exitY=0.5;exitDx=0;exitDy=0;entryX=0;entryY=0.5;entryDx=0;entryDy=0;" parent="vNYUUVMX6C41dm5Dhd-K-1" source="vNYUUVMX6C41dm5Dhd-K-52" target="vNYUUVMX6C41dm5Dhd-K-77" edge="1">
          <mxGeometry relative="1" as="geometry" />
        </mxCell>
        <mxCell id="vNYUUVMX6C41dm5Dhd-K-52" value="PARTITIONER&lt;br&gt;depending trait Params" style="ellipse;whiteSpace=wrap;html=1;fillColor=#dae8fc;strokeColor=#6c8ebf;" parent="vNYUUVMX6C41dm5Dhd-K-1" vertex="1">
          <mxGeometry x="-80" y="280" width="120" height="80" as="geometry" />
        </mxCell>
        <mxCell id="vNYUUVMX6C41dm5Dhd-K-86" style="edgeStyle=orthogonalEdgeStyle;rounded=0;orthogonalLoop=1;jettySize=auto;html=1;exitX=1;exitY=0.5;exitDx=0;exitDy=0;entryX=0;entryY=0.5;entryDx=0;entryDy=0;" parent="vNYUUVMX6C41dm5Dhd-K-1" source="vNYUUVMX6C41dm5Dhd-K-61" target="vNYUUVMX6C41dm5Dhd-K-52" edge="1">
          <mxGeometry relative="1" as="geometry" />
        </mxCell>
        <mxCell id="dGtZM3y6No2JxKleKozX-3" style="edgeStyle=orthogonalEdgeStyle;rounded=0;orthogonalLoop=1;jettySize=auto;html=1;exitX=0.5;exitY=0;exitDx=0;exitDy=0;" parent="vNYUUVMX6C41dm5Dhd-K-1" source="vNYUUVMX6C41dm5Dhd-K-61" edge="1">
          <mxGeometry relative="1" as="geometry">
            <mxPoint x="-180" y="240" as="targetPoint" />
          </mxGeometry>
        </mxCell>
        <mxCell id="vNYUUVMX6C41dm5Dhd-K-61" value="ClientActor&lt;br&gt;(represents the Source = Client)" style="rounded=0;whiteSpace=wrap;html=1;fillColor=#e1d5e7;strokeColor=#9673a6;" parent="vNYUUVMX6C41dm5Dhd-K-1" vertex="1">
          <mxGeometry x="-240" y="290" width="120" height="60" as="geometry" />
        </mxCell>
        <mxCell id="vNYUUVMX6C41dm5Dhd-K-81" style="edgeStyle=orthogonalEdgeStyle;rounded=0;orthogonalLoop=1;jettySize=auto;html=1;exitX=1;exitY=0.5;exitDx=0;exitDy=0;entryX=0;entryY=0.5;entryDx=0;entryDy=0;" parent="vNYUUVMX6C41dm5Dhd-K-1" source="vNYUUVMX6C41dm5Dhd-K-77" edge="1">
          <mxGeometry relative="1" as="geometry">
            <mxPoint x="320" y="320" as="targetPoint" />
          </mxGeometry>
        </mxCell>
        <mxCell id="vNYUUVMX6C41dm5Dhd-K-77" value="Handler for messages with &quot;params&quot;" style="rounded=0;whiteSpace=wrap;html=1;fillColor=#d5e8d4;strokeColor=#82b366;dashed=1;strokeWidth=2;" parent="vNYUUVMX6C41dm5Dhd-K-1" vertex="1">
          <mxGeometry x="80" y="280" width="160" height="80" as="geometry" />
        </mxCell>
        <mxCell id="vNYUUVMX6C41dm5Dhd-K-83" style="edgeStyle=orthogonalEdgeStyle;rounded=0;orthogonalLoop=1;jettySize=auto;html=1;exitX=1;exitY=0.5;exitDx=0;exitDy=0;entryX=0;entryY=0.5;entryDx=0;entryDy=0;" parent="vNYUUVMX6C41dm5Dhd-K-1" source="vNYUUVMX6C41dm5Dhd-K-78" edge="1">
          <mxGeometry relative="1" as="geometry">
            <mxPoint x="320" y="320" as="targetPoint" />
            <Array as="points">
              <mxPoint x="280" y="440" />
              <mxPoint x="280" y="320" />
            </Array>
          </mxGeometry>
        </mxCell>
        <mxCell id="vNYUUVMX6C41dm5Dhd-K-78" value="Handler for messages without &quot;params&quot;" style="rounded=0;whiteSpace=wrap;html=1;fillColor=#ffe6cc;strokeColor=#d79b00;strokeWidth=2;dashed=1;" parent="vNYUUVMX6C41dm5Dhd-K-1" vertex="1">
          <mxGeometry x="80" y="400" width="160" height="80" as="geometry" />
        </mxCell>
      </root>
    </mxGraphModel>
  </diagram>
  <diagram name="be2-simplified" id="BGu21Tm-9RbKTmarLt8H">
    <mxGraphModel dx="2416" dy="1504" grid="1" gridSize="10" guides="1" tooltips="1" connect="1" arrows="1" fold="1" page="1" pageScale="1" pageWidth="1169" pageHeight="827" math="0" shadow="0">
      <root>
        <mxCell id="Ef0WP4sdWJJAroIBTv4k-0" />
        <mxCell id="Ef0WP4sdWJJAroIBTv4k-1" parent="Ef0WP4sdWJJAroIBTv4k-0" />
        <mxCell id="m37VM0mgtICoDva8d0le-0" style="edgeStyle=orthogonalEdgeStyle;rounded=0;orthogonalLoop=1;jettySize=auto;html=1;exitX=0;exitY=0.5;exitDx=0;exitDy=0;entryX=1;entryY=0.5;entryDx=0;entryDy=0;" parent="Ef0WP4sdWJJAroIBTv4k-1" source="m37VM0mgtICoDva8d0le-4" target="m37VM0mgtICoDva8d0le-8" edge="1">
          <mxGeometry relative="1" as="geometry" />
        </mxCell>
        <mxCell id="m37VM0mgtICoDva8d0le-1" style="edgeStyle=orthogonalEdgeStyle;rounded=0;orthogonalLoop=1;jettySize=auto;html=1;exitX=0;exitY=0.5;exitDx=0;exitDy=0;entryX=1;entryY=0.5;entryDx=0;entryDy=0;" parent="Ef0WP4sdWJJAroIBTv4k-1" source="m37VM0mgtICoDva8d0le-4" target="m37VM0mgtICoDva8d0le-10" edge="1">
          <mxGeometry relative="1" as="geometry" />
        </mxCell>
        <mxCell id="m37VM0mgtICoDva8d0le-2" style="edgeStyle=orthogonalEdgeStyle;rounded=0;orthogonalLoop=1;jettySize=auto;html=1;exitX=0;exitY=0.5;exitDx=0;exitDy=0;entryX=1;entryY=0.5;entryDx=0;entryDy=0;" parent="Ef0WP4sdWJJAroIBTv4k-1" source="m37VM0mgtICoDva8d0le-4" target="m37VM0mgtICoDva8d0le-6" edge="1">
          <mxGeometry relative="1" as="geometry" />
        </mxCell>
        <mxCell id="m37VM0mgtICoDva8d0le-3" style="edgeStyle=orthogonalEdgeStyle;rounded=0;orthogonalLoop=1;jettySize=auto;html=1;exitX=1;exitY=0.5;exitDx=0;exitDy=0;entryX=0;entryY=0.5;entryDx=0;entryDy=0;entryPerimeter=0;" parent="Ef0WP4sdWJJAroIBTv4k-1" source="m37VM0mgtICoDva8d0le-4" target="m37VM0mgtICoDva8d0le-12" edge="1">
          <mxGeometry relative="1" as="geometry" />
        </mxCell>
        <mxCell id="L8p_xPoEcPkjr5wB8PZ9-8" style="edgeStyle=orthogonalEdgeStyle;rounded=0;orthogonalLoop=1;jettySize=auto;html=1;exitX=0.5;exitY=1;exitDx=0;exitDy=0;startArrow=classic;startFill=1;entryX=0.5;entryY=0;entryDx=0;entryDy=0;" edge="1" parent="Ef0WP4sdWJJAroIBTv4k-1" source="m37VM0mgtICoDva8d0le-4" target="L8p_xPoEcPkjr5wB8PZ9-0">
          <mxGeometry relative="1" as="geometry">
            <mxPoint x="-90" y="-70" as="targetPoint" />
          </mxGeometry>
        </mxCell>
        <mxCell id="m37VM0mgtICoDva8d0le-4" value="SERVER#1" style="ellipse;whiteSpace=wrap;html=1;" parent="Ef0WP4sdWJJAroIBTv4k-1" vertex="1">
          <mxGeometry x="-150" y="-370" width="120" height="80" as="geometry" />
        </mxCell>
        <mxCell id="m37VM0mgtICoDva8d0le-5" style="edgeStyle=orthogonalEdgeStyle;rounded=0;orthogonalLoop=1;jettySize=auto;html=1;exitX=1;exitY=0.5;exitDx=0;exitDy=0;entryX=0;entryY=0.5;entryDx=0;entryDy=0;" parent="Ef0WP4sdWJJAroIBTv4k-1" source="m37VM0mgtICoDva8d0le-6" target="m37VM0mgtICoDva8d0le-4" edge="1">
          <mxGeometry relative="1" as="geometry" />
        </mxCell>
        <mxCell id="m37VM0mgtICoDva8d0le-6" value="Client" style="ellipse;whiteSpace=wrap;html=1;" parent="Ef0WP4sdWJJAroIBTv4k-1" vertex="1">
          <mxGeometry x="-450" y="-490" width="120" height="80" as="geometry" />
        </mxCell>
        <mxCell id="m37VM0mgtICoDva8d0le-7" style="edgeStyle=orthogonalEdgeStyle;rounded=0;orthogonalLoop=1;jettySize=auto;html=1;entryX=0;entryY=0.5;entryDx=0;entryDy=0;" parent="Ef0WP4sdWJJAroIBTv4k-1" source="m37VM0mgtICoDva8d0le-8" target="m37VM0mgtICoDva8d0le-4" edge="1">
          <mxGeometry relative="1" as="geometry" />
        </mxCell>
        <mxCell id="m37VM0mgtICoDva8d0le-8" value="Client" style="ellipse;whiteSpace=wrap;html=1;" parent="Ef0WP4sdWJJAroIBTv4k-1" vertex="1">
          <mxGeometry x="-450" y="-370" width="120" height="80" as="geometry" />
        </mxCell>
        <mxCell id="m37VM0mgtICoDva8d0le-9" style="edgeStyle=orthogonalEdgeStyle;rounded=0;orthogonalLoop=1;jettySize=auto;html=1;entryX=0;entryY=0.5;entryDx=0;entryDy=0;" parent="Ef0WP4sdWJJAroIBTv4k-1" source="m37VM0mgtICoDva8d0le-10" target="m37VM0mgtICoDva8d0le-4" edge="1">
          <mxGeometry relative="1" as="geometry" />
        </mxCell>
        <mxCell id="m37VM0mgtICoDva8d0le-10" value="Client" style="ellipse;whiteSpace=wrap;html=1;" parent="Ef0WP4sdWJJAroIBTv4k-1" vertex="1">
          <mxGeometry x="-450" y="-250" width="120" height="80" as="geometry" />
        </mxCell>
        <mxCell id="m37VM0mgtICoDva8d0le-11" style="edgeStyle=orthogonalEdgeStyle;rounded=0;orthogonalLoop=1;jettySize=auto;html=1;exitX=0;exitY=0.5;exitDx=0;exitDy=0;exitPerimeter=0;" parent="Ef0WP4sdWJJAroIBTv4k-1" source="m37VM0mgtICoDva8d0le-12" edge="1">
          <mxGeometry relative="1" as="geometry">
            <mxPoint x="-30" y="-329.85714285714266" as="targetPoint" />
          </mxGeometry>
        </mxCell>
        <mxCell id="m37VM0mgtICoDva8d0le-12" value="DB" style="shape=cylinder3;whiteSpace=wrap;html=1;boundedLbl=1;backgroundOutline=1;size=15;fillColor=#e1d5e7;strokeColor=#9673a6;" parent="Ef0WP4sdWJJAroIBTv4k-1" vertex="1">
          <mxGeometry x="70" y="-370" width="60" height="80" as="geometry" />
        </mxCell>
        <mxCell id="L8p_xPoEcPkjr5wB8PZ9-5" style="edgeStyle=orthogonalEdgeStyle;rounded=0;orthogonalLoop=1;jettySize=auto;html=1;exitX=1;exitY=0.5;exitDx=0;exitDy=0;strokeColor=default;startArrow=classic;startFill=1;" edge="1" parent="Ef0WP4sdWJJAroIBTv4k-1" source="L8p_xPoEcPkjr5wB8PZ9-0" target="L8p_xPoEcPkjr5wB8PZ9-4">
          <mxGeometry relative="1" as="geometry" />
        </mxCell>
        <mxCell id="L8p_xPoEcPkjr5wB8PZ9-6" style="edgeStyle=orthogonalEdgeStyle;rounded=0;orthogonalLoop=1;jettySize=auto;html=1;exitX=0;exitY=0.5;exitDx=0;exitDy=0;entryX=1;entryY=0.5;entryDx=0;entryDy=0;startArrow=classic;startFill=1;" edge="1" parent="Ef0WP4sdWJJAroIBTv4k-1" source="L8p_xPoEcPkjr5wB8PZ9-0" target="L8p_xPoEcPkjr5wB8PZ9-1">
          <mxGeometry relative="1" as="geometry" />
        </mxCell>
        <mxCell id="L8p_xPoEcPkjr5wB8PZ9-7" style="edgeStyle=orthogonalEdgeStyle;rounded=0;orthogonalLoop=1;jettySize=auto;html=1;exitX=0;exitY=0.5;exitDx=0;exitDy=0;entryX=1;entryY=0.5;entryDx=0;entryDy=0;startArrow=classic;startFill=1;" edge="1" parent="Ef0WP4sdWJJAroIBTv4k-1" source="L8p_xPoEcPkjr5wB8PZ9-0" target="L8p_xPoEcPkjr5wB8PZ9-2">
          <mxGeometry relative="1" as="geometry" />
        </mxCell>
        <mxCell id="L8p_xPoEcPkjr5wB8PZ9-0" value="SERVER#2" style="ellipse;whiteSpace=wrap;html=1;" vertex="1" parent="Ef0WP4sdWJJAroIBTv4k-1">
          <mxGeometry x="-150" y="-60" width="120" height="80" as="geometry" />
        </mxCell>
        <mxCell id="L8p_xPoEcPkjr5wB8PZ9-1" value="Client" style="ellipse;whiteSpace=wrap;html=1;" vertex="1" parent="Ef0WP4sdWJJAroIBTv4k-1">
          <mxGeometry x="-440" y="-120" width="120" height="80" as="geometry" />
        </mxCell>
        <mxCell id="L8p_xPoEcPkjr5wB8PZ9-2" value="Client" style="ellipse;whiteSpace=wrap;html=1;" vertex="1" parent="Ef0WP4sdWJJAroIBTv4k-1">
          <mxGeometry x="-440" width="120" height="80" as="geometry" />
        </mxCell>
        <mxCell id="L8p_xPoEcPkjr5wB8PZ9-4" value="DB" style="shape=cylinder3;whiteSpace=wrap;html=1;boundedLbl=1;backgroundOutline=1;size=15;fillColor=#e1d5e7;strokeColor=#9673a6;" vertex="1" parent="Ef0WP4sdWJJAroIBTv4k-1">
          <mxGeometry x="90" y="-60" width="60" height="80" as="geometry" />
        </mxCell>
      </root>
    </mxGraphModel>
  </diagram>
  <diagram name="be2-pipeline-s" id="c8OCAXkFQEtuzj1sQPj3">
    <mxGraphModel dx="2603" dy="778" grid="1" gridSize="10" guides="1" tooltips="1" connect="1" arrows="1" fold="1" page="1" pageScale="1" pageWidth="1169" pageHeight="827" math="0" shadow="0">
      <root>
        <mxCell id="kM3VtPrZi_OBbqF4rAsv-0" />
        <mxCell id="kM3VtPrZi_OBbqF4rAsv-1" parent="kM3VtPrZi_OBbqF4rAsv-0" />
        <mxCell id="03Ofjcj5-keQxr63mmt3-1" style="edgeStyle=orthogonalEdgeStyle;rounded=0;orthogonalLoop=1;jettySize=auto;html=1;entryX=0.5;entryY=1;entryDx=0;entryDy=0;" parent="kM3VtPrZi_OBbqF4rAsv-1" source="pOdhkxr7yMfGTOWCAe6R-1" target="pOdhkxr7yMfGTOWCAe6R-24" edge="1">
          <mxGeometry relative="1" as="geometry" />
        </mxCell>
        <mxCell id="pOdhkxr7yMfGTOWCAe6R-1" value="SOURCE&lt;br&gt;(input)" style="ellipse;whiteSpace=wrap;html=1;fillColor=#dae8fc;strokeColor=#6c8ebf;" parent="kM3VtPrZi_OBbqF4rAsv-1" vertex="1">
          <mxGeometry x="-320" y="400" width="120" height="80" as="geometry" />
        </mxCell>
        <mxCell id="pOdhkxr7yMfGTOWCAe6R-3" value="DB" style="shape=cylinder3;whiteSpace=wrap;html=1;boundedLbl=1;backgroundOutline=1;size=15;fillColor=#e1d5e7;strokeColor=#9673a6;" parent="kM3VtPrZi_OBbqF4rAsv-1" vertex="1">
          <mxGeometry y="400" width="120" height="100" as="geometry" />
        </mxCell>
        <mxCell id="03Ofjcj5-keQxr63mmt3-8" style="edgeStyle=orthogonalEdgeStyle;rounded=0;orthogonalLoop=1;jettySize=auto;html=1;exitX=0.5;exitY=1;exitDx=0;exitDy=0;entryX=0.5;entryY=0;entryDx=0;entryDy=0;" parent="kM3VtPrZi_OBbqF4rAsv-1" source="pOdhkxr7yMfGTOWCAe6R-7" target="03Ofjcj5-keQxr63mmt3-7" edge="1">
          <mxGeometry relative="1" as="geometry" />
        </mxCell>
        <mxCell id="pOdhkxr7yMfGTOWCAe6R-7" value="AnswerGenerator" style="rounded=0;whiteSpace=wrap;html=1;" parent="kM3VtPrZi_OBbqF4rAsv-1" vertex="1">
          <mxGeometry x="320" y="290" width="120" height="60" as="geometry" />
        </mxCell>
        <mxCell id="03Ofjcj5-keQxr63mmt3-5" style="edgeStyle=orthogonalEdgeStyle;rounded=0;orthogonalLoop=1;jettySize=auto;html=1;exitX=1;exitY=0.5;exitDx=0;exitDy=0;entryX=0;entryY=0.5;entryDx=0;entryDy=0;" parent="kM3VtPrZi_OBbqF4rAsv-1" source="pOdhkxr7yMfGTOWCAe6R-18" target="pOdhkxr7yMfGTOWCAe6R-7" edge="1">
          <mxGeometry relative="1" as="geometry" />
        </mxCell>
        <mxCell id="pOdhkxr7yMfGTOWCAe6R-18" value="Handlers" style="rounded=0;whiteSpace=wrap;html=1;fillColor=#f8cecc;strokeColor=#b85450;dashed=1;strokeWidth=2;" parent="kM3VtPrZi_OBbqF4rAsv-1" vertex="1">
          <mxGeometry x="160" y="290" width="120" height="60" as="geometry" />
        </mxCell>
        <mxCell id="03Ofjcj5-keQxr63mmt3-3" style="edgeStyle=orthogonalEdgeStyle;rounded=0;orthogonalLoop=1;jettySize=auto;html=1;exitX=1;exitY=0.5;exitDx=0;exitDy=0;entryX=0;entryY=0.5;entryDx=0;entryDy=0;" parent="kM3VtPrZi_OBbqF4rAsv-1" source="pOdhkxr7yMfGTOWCAe6R-22" target="03Ofjcj5-keQxr63mmt3-0" edge="1">
          <mxGeometry relative="1" as="geometry" />
        </mxCell>
        <mxCell id="pOdhkxr7yMfGTOWCAe6R-22" value="Decoder" style="rounded=0;whiteSpace=wrap;html=1;" parent="kM3VtPrZi_OBbqF4rAsv-1" vertex="1">
          <mxGeometry x="-160" y="290" width="120" height="60" as="geometry" />
        </mxCell>
        <mxCell id="03Ofjcj5-keQxr63mmt3-2" style="edgeStyle=orthogonalEdgeStyle;rounded=0;orthogonalLoop=1;jettySize=auto;html=1;exitX=1;exitY=0.5;exitDx=0;exitDy=0;entryX=0;entryY=0.5;entryDx=0;entryDy=0;" parent="kM3VtPrZi_OBbqF4rAsv-1" source="pOdhkxr7yMfGTOWCAe6R-24" target="pOdhkxr7yMfGTOWCAe6R-22" edge="1">
          <mxGeometry relative="1" as="geometry" />
        </mxCell>
        <mxCell id="pOdhkxr7yMfGTOWCAe6R-24" value="SchemaVerifier" style="rounded=0;whiteSpace=wrap;html=1;" parent="kM3VtPrZi_OBbqF4rAsv-1" vertex="1">
          <mxGeometry x="-320" y="290" width="120" height="60" as="geometry" />
        </mxCell>
        <mxCell id="03Ofjcj5-keQxr63mmt3-4" style="edgeStyle=orthogonalEdgeStyle;rounded=0;orthogonalLoop=1;jettySize=auto;html=1;exitX=1;exitY=0.5;exitDx=0;exitDy=0;entryX=0;entryY=0.5;entryDx=0;entryDy=0;" parent="kM3VtPrZi_OBbqF4rAsv-1" source="03Ofjcj5-keQxr63mmt3-0" target="pOdhkxr7yMfGTOWCAe6R-18" edge="1">
          <mxGeometry relative="1" as="geometry" />
        </mxCell>
        <mxCell id="03Ofjcj5-keQxr63mmt3-0" value="Validators" style="rounded=0;whiteSpace=wrap;html=1;fillColor=#f8cecc;strokeColor=#b85450;dashed=1;strokeWidth=2;" parent="kM3VtPrZi_OBbqF4rAsv-1" vertex="1">
          <mxGeometry y="290" width="120" height="60" as="geometry" />
        </mxCell>
        <mxCell id="03Ofjcj5-keQxr63mmt3-7" value="SINK&lt;br&gt;(output)" style="ellipse;whiteSpace=wrap;html=1;fillColor=#dae8fc;strokeColor=#6c8ebf;" parent="kM3VtPrZi_OBbqF4rAsv-1" vertex="1">
          <mxGeometry x="320" y="400" width="120" height="80" as="geometry" />
        </mxCell>
        <mxCell id="03Ofjcj5-keQxr63mmt3-10" value="" style="html=1;shadow=0;dashed=0;align=center;verticalAlign=middle;shape=mxgraph.arrows2.twoWayArrow;dy=0.53;dx=18;strokeColor=#6c8ebf;fillColor=#dae8fc;rotation=90;" parent="kM3VtPrZi_OBbqF4rAsv-1" vertex="1">
          <mxGeometry x="20" y="365.89" width="80" height="20" as="geometry" />
        </mxCell>
        <mxCell id="03Ofjcj5-keQxr63mmt3-11" value="" style="html=1;shadow=0;dashed=0;align=center;verticalAlign=middle;shape=mxgraph.arrows2.twoWayArrow;dy=0.53;dx=18;strokeColor=#6c8ebf;fillColor=#dae8fc;rotation=45;" parent="kM3VtPrZi_OBbqF4rAsv-1" vertex="1">
          <mxGeometry x="-70" y="367.24" width="113" height="20" as="geometry" />
        </mxCell>
        <mxCell id="03Ofjcj5-keQxr63mmt3-12" value="" style="html=1;shadow=0;dashed=0;align=center;verticalAlign=middle;shape=mxgraph.arrows2.twoWayArrow;dy=0.53;dx=18;strokeColor=#6c8ebf;fillColor=#dae8fc;rotation=-45;" parent="kM3VtPrZi_OBbqF4rAsv-1" vertex="1">
          <mxGeometry x="82.61" y="365.89" width="109" height="20" as="geometry" />
        </mxCell>
      </root>
    </mxGraphModel>
  </diagram>
  <diagram name="be2-pipeline-s-annot" id="CiMU8hkNFSWuE0Zs6AIT">
    <mxGraphModel dx="2603" dy="778" grid="1" gridSize="10" guides="1" tooltips="1" connect="1" arrows="1" fold="1" page="1" pageScale="1" pageWidth="1169" pageHeight="827" math="0" shadow="0">
      <root>
        <mxCell id="DXdY7fNJdsDGyy_GN3W3-0" />
        <mxCell id="DXdY7fNJdsDGyy_GN3W3-1" parent="DXdY7fNJdsDGyy_GN3W3-0" />
        <mxCell id="DXdY7fNJdsDGyy_GN3W3-2" style="edgeStyle=orthogonalEdgeStyle;rounded=0;orthogonalLoop=1;jettySize=auto;html=1;entryX=0.5;entryY=1;entryDx=0;entryDy=0;" parent="DXdY7fNJdsDGyy_GN3W3-1" source="DXdY7fNJdsDGyy_GN3W3-3" target="DXdY7fNJdsDGyy_GN3W3-12" edge="1">
          <mxGeometry relative="1" as="geometry" />
        </mxCell>
        <mxCell id="DXdY7fNJdsDGyy_GN3W3-3" value="SOURCE&lt;br&gt;(input)" style="ellipse;whiteSpace=wrap;html=1;fillColor=#dae8fc;strokeColor=#6c8ebf;" parent="DXdY7fNJdsDGyy_GN3W3-1" vertex="1">
          <mxGeometry x="-320" y="400" width="120" height="80" as="geometry" />
        </mxCell>
        <mxCell id="DXdY7fNJdsDGyy_GN3W3-4" value="DB" style="shape=cylinder3;whiteSpace=wrap;html=1;boundedLbl=1;backgroundOutline=1;size=15;fillColor=#e1d5e7;strokeColor=#9673a6;" parent="DXdY7fNJdsDGyy_GN3W3-1" vertex="1">
          <mxGeometry y="400" width="120" height="100" as="geometry" />
        </mxCell>
        <mxCell id="DXdY7fNJdsDGyy_GN3W3-5" style="edgeStyle=orthogonalEdgeStyle;rounded=0;orthogonalLoop=1;jettySize=auto;html=1;exitX=0.5;exitY=1;exitDx=0;exitDy=0;entryX=0.5;entryY=0;entryDx=0;entryDy=0;" parent="DXdY7fNJdsDGyy_GN3W3-1" source="DXdY7fNJdsDGyy_GN3W3-6" target="DXdY7fNJdsDGyy_GN3W3-15" edge="1">
          <mxGeometry relative="1" as="geometry" />
        </mxCell>
        <mxCell id="DXdY7fNJdsDGyy_GN3W3-6" value="AnswerGenerator" style="rounded=0;whiteSpace=wrap;html=1;" parent="DXdY7fNJdsDGyy_GN3W3-1" vertex="1">
          <mxGeometry x="320" y="290" width="120" height="60" as="geometry" />
        </mxCell>
        <mxCell id="DXdY7fNJdsDGyy_GN3W3-7" style="edgeStyle=orthogonalEdgeStyle;rounded=0;orthogonalLoop=1;jettySize=auto;html=1;exitX=1;exitY=0.5;exitDx=0;exitDy=0;entryX=0;entryY=0.5;entryDx=0;entryDy=0;" parent="DXdY7fNJdsDGyy_GN3W3-1" source="DXdY7fNJdsDGyy_GN3W3-8" target="DXdY7fNJdsDGyy_GN3W3-6" edge="1">
          <mxGeometry relative="1" as="geometry" />
        </mxCell>
        <mxCell id="DXdY7fNJdsDGyy_GN3W3-8" value="Handlers" style="rounded=0;whiteSpace=wrap;html=1;fillColor=#f8cecc;strokeColor=#b85450;dashed=1;strokeWidth=2;" parent="DXdY7fNJdsDGyy_GN3W3-1" vertex="1">
          <mxGeometry x="160" y="290" width="120" height="60" as="geometry" />
        </mxCell>
        <mxCell id="DXdY7fNJdsDGyy_GN3W3-9" style="edgeStyle=orthogonalEdgeStyle;rounded=0;orthogonalLoop=1;jettySize=auto;html=1;exitX=1;exitY=0.5;exitDx=0;exitDy=0;entryX=0;entryY=0.5;entryDx=0;entryDy=0;" parent="DXdY7fNJdsDGyy_GN3W3-1" source="DXdY7fNJdsDGyy_GN3W3-10" target="DXdY7fNJdsDGyy_GN3W3-14" edge="1">
          <mxGeometry relative="1" as="geometry" />
        </mxCell>
        <mxCell id="DXdY7fNJdsDGyy_GN3W3-10" value="Decoder" style="rounded=0;whiteSpace=wrap;html=1;" parent="DXdY7fNJdsDGyy_GN3W3-1" vertex="1">
          <mxGeometry x="-160" y="290" width="120" height="60" as="geometry" />
        </mxCell>
        <mxCell id="DXdY7fNJdsDGyy_GN3W3-11" style="edgeStyle=orthogonalEdgeStyle;rounded=0;orthogonalLoop=1;jettySize=auto;html=1;exitX=1;exitY=0.5;exitDx=0;exitDy=0;entryX=0;entryY=0.5;entryDx=0;entryDy=0;" parent="DXdY7fNJdsDGyy_GN3W3-1" source="DXdY7fNJdsDGyy_GN3W3-12" target="DXdY7fNJdsDGyy_GN3W3-10" edge="1">
          <mxGeometry relative="1" as="geometry" />
        </mxCell>
        <mxCell id="DXdY7fNJdsDGyy_GN3W3-12" value="SchemaVerifier" style="rounded=0;whiteSpace=wrap;html=1;" parent="DXdY7fNJdsDGyy_GN3W3-1" vertex="1">
          <mxGeometry x="-320" y="290" width="120" height="60" as="geometry" />
        </mxCell>
        <mxCell id="DXdY7fNJdsDGyy_GN3W3-13" style="edgeStyle=orthogonalEdgeStyle;rounded=0;orthogonalLoop=1;jettySize=auto;html=1;exitX=1;exitY=0.5;exitDx=0;exitDy=0;entryX=0;entryY=0.5;entryDx=0;entryDy=0;" parent="DXdY7fNJdsDGyy_GN3W3-1" source="DXdY7fNJdsDGyy_GN3W3-14" target="DXdY7fNJdsDGyy_GN3W3-8" edge="1">
          <mxGeometry relative="1" as="geometry" />
        </mxCell>
        <mxCell id="DXdY7fNJdsDGyy_GN3W3-14" value="Validators" style="rounded=0;whiteSpace=wrap;html=1;fillColor=#f8cecc;strokeColor=#b85450;dashed=1;strokeWidth=2;" parent="DXdY7fNJdsDGyy_GN3W3-1" vertex="1">
          <mxGeometry y="290" width="120" height="60" as="geometry" />
        </mxCell>
        <mxCell id="DXdY7fNJdsDGyy_GN3W3-15" value="SINK&lt;br&gt;(output)" style="ellipse;whiteSpace=wrap;html=1;fillColor=#dae8fc;strokeColor=#6c8ebf;" parent="DXdY7fNJdsDGyy_GN3W3-1" vertex="1">
          <mxGeometry x="320" y="400" width="120" height="80" as="geometry" />
        </mxCell>
        <mxCell id="DXdY7fNJdsDGyy_GN3W3-16" value="" style="html=1;shadow=0;dashed=0;align=center;verticalAlign=middle;shape=mxgraph.arrows2.twoWayArrow;dy=0.53;dx=18;strokeColor=#6c8ebf;fillColor=#dae8fc;rotation=90;" parent="DXdY7fNJdsDGyy_GN3W3-1" vertex="1">
          <mxGeometry x="20" y="365.89" width="80" height="20" as="geometry" />
        </mxCell>
        <mxCell id="DXdY7fNJdsDGyy_GN3W3-17" value="" style="html=1;shadow=0;dashed=0;align=center;verticalAlign=middle;shape=mxgraph.arrows2.twoWayArrow;dy=0.53;dx=18;strokeColor=#6c8ebf;fillColor=#dae8fc;rotation=45;" parent="DXdY7fNJdsDGyy_GN3W3-1" vertex="1">
          <mxGeometry x="-70" y="367.24" width="113" height="20" as="geometry" />
        </mxCell>
        <mxCell id="DXdY7fNJdsDGyy_GN3W3-18" value="" style="html=1;shadow=0;dashed=0;align=center;verticalAlign=middle;shape=mxgraph.arrows2.twoWayArrow;dy=0.53;dx=18;strokeColor=#6c8ebf;fillColor=#dae8fc;rotation=-45;" parent="DXdY7fNJdsDGyy_GN3W3-1" vertex="1">
          <mxGeometry x="82.61" y="365.89" width="109" height="20" as="geometry" />
        </mxCell>
        <mxCell id="DXdY7fNJdsDGyy_GN3W3-19" value="timestamp &amp;gt;= 0?&lt;br&gt;jsonrpc == &quot;2.0&quot;?&lt;br&gt;." style="whiteSpace=wrap;html=1;shape=mxgraph.basic.cloud_callout;fillColor=#d5e8d4;strokeColor=#82b366;" parent="DXdY7fNJdsDGyy_GN3W3-1" vertex="1">
          <mxGeometry x="-310" y="190" width="165" height="110" as="geometry" />
        </mxCell>
        <mxCell id="DXdY7fNJdsDGyy_GN3W3-20" value="JSON =&amp;gt; internal representation&lt;br&gt;." style="whiteSpace=wrap;html=1;shape=mxgraph.basic.cloud_callout;fillColor=#d5e8d4;strokeColor=#82b366;" parent="DXdY7fNJdsDGyy_GN3W3-1" vertex="1">
          <mxGeometry x="-153" y="190" width="165" height="110" as="geometry" />
        </mxCell>
        <mxCell id="DXdY7fNJdsDGyy_GN3W3-21" value="Is end_date &amp;gt;=&lt;br&gt;start_date ?&lt;br&gt;." style="whiteSpace=wrap;html=1;shape=mxgraph.basic.cloud_callout;fillColor=#d5e8d4;strokeColor=#82b366;" parent="DXdY7fNJdsDGyy_GN3W3-1" vertex="1">
          <mxGeometry x="10" y="190" width="165" height="110" as="geometry" />
        </mxCell>
        <mxCell id="DXdY7fNJdsDGyy_GN3W3-22" value="Process / Store&lt;br&gt;information&lt;br&gt;." style="whiteSpace=wrap;html=1;shape=mxgraph.basic.cloud_callout;fillColor=#d5e8d4;strokeColor=#82b366;" parent="DXdY7fNJdsDGyy_GN3W3-1" vertex="1">
          <mxGeometry x="170" y="190" width="165" height="110" as="geometry" />
        </mxCell>
        <mxCell id="DXdY7fNJdsDGyy_GN3W3-23" value="request =&amp;gt; reply&lt;br&gt;." style="whiteSpace=wrap;html=1;shape=mxgraph.basic.cloud_callout;fillColor=#d5e8d4;strokeColor=#82b366;" parent="DXdY7fNJdsDGyy_GN3W3-1" vertex="1">
          <mxGeometry x="330" y="190" width="165" height="110" as="geometry" />
        </mxCell>
      </root>
    </mxGraphModel>
  </diagram>
</mxfile>
